<svg width="531" height="459" viewBox="0 0 531 459" fill="none" xmlns="http://www.w3.org/2000/svg">
<g filter="url(#filter0_d_502_109)">
<path d="M378.833 140.297C439.648 90.4902 520.273 171.115 470.466 231.931C450.815 255.925 450.815 290.45 470.466 314.445C520.273 375.261 439.648 455.885 378.833 406.078C354.838 386.427 320.313 386.427 296.318 406.078C235.502 455.885 154.878 375.261 204.685 314.445C224.336 290.45 224.336 255.925 204.685 231.931C154.878 171.115 235.503 90.4902 296.318 140.297C320.313 159.948 354.838 159.948 378.833 140.297Z" fill="#EC6A36"/>
<path d="M381.367 143.392C438.447 96.6445 514.119 172.316 467.371 229.396C446.513 254.865 446.513 291.511 467.371 316.979C514.119 374.059 438.447 449.731 381.367 402.984C355.898 382.125 319.253 382.125 293.784 402.984C236.704 449.731 161.032 374.059 207.779 316.979C228.638 291.511 228.638 254.865 207.779 229.396C161.032 172.316 236.704 96.6444 293.784 143.392C319.253 164.25 355.898 164.25 381.367 143.392Z" stroke="black" stroke-width="8"/>
</g>
<g filter="url(#filter1_d_502_109)">
<path fill-rule="evenodd" clip-rule="evenodd" d="M242.399 55.0331C213.121 4.32225 139.926 4.32232 110.649 55.0332L28.3044 197.657C-0.973503 248.368 35.624 311.757 94.1798 311.757H258.868C317.424 311.757 354.021 248.368 324.743 197.657L242.399 55.0331ZM201.014 133.961C188.721 113.24 157.989 113.24 145.697 133.961L111.124 192.238C98.831 212.958 114.197 238.859 138.782 238.859H207.928C232.514 238.859 247.88 212.958 235.587 192.238L201.014 133.961Z" fill="white"/>
<path fill-rule="evenodd" clip-rule="evenodd" d="M242.399 55.0331C213.121 4.32225 139.926 4.32232 110.649 55.0332L28.3044 197.657C-0.973503 248.368 35.624 311.757 94.1798 311.757H258.868C317.424 311.757 354.021 248.368 324.743 197.657L242.399 55.0331ZM201.014 133.961C188.721 113.24 157.989 113.24 145.697 133.961L111.124 192.238C98.831 212.958 114.197 238.859 138.782 238.859H207.928C232.514 238.859 247.88 212.958 235.587 192.238L201.014 133.961Z" stroke="black" stroke-width="8"/>
</g>
<defs>
<filter id="filter0_d_502_109" x="189.15" y="124.763" width="328.545" height="322.206" filterUnits="userSpaceOnUse" color-interpolation-filters="sRGB">
<feFlood flood-opacity="0" result="BackgroundImageFix"/>
<feColorMatrix in="SourceAlpha" type="matrix" values="0 0 0 0 0 0 0 0 0 0 0 0 0 0 0 0 0 0 127 0" result="hardAlpha"/>
<feOffset dx="31.6943" dy="25.3554"/>
<feComposite in2="hardAlpha" operator="out"/>
<feColorMatrix type="matrix" values="0 0 0 0 0 0 0 0 0 0 0 0 0 0 0 0 0 0 1 0"/>
<feBlend mode="normal" in2="BackgroundImageFix" result="effect1_dropShadow_502_109"/>
<feBlend mode="normal" in="SourceGraphic" in2="effect1_dropShadow_502_109" result="shape"/>
</filter>
<filter id="filter1_d_502_109" x="13.9941" y="13" width="356.754" height="328.112" filterUnits="userSpaceOnUse" color-interpolation-filters="sRGB">
<feFlood flood-opacity="0" result="BackgroundImageFix"/>
<feColorMatrix in="SourceAlpha" type="matrix" values="0 0 0 0 0 0 0 0 0 0 0 0 0 0 0 0 0 0 127 0" result="hardAlpha"/>
<feOffset dx="31.6943" dy="25.3554"/>
<feComposite in2="hardAlpha" operator="out"/>
<feColorMatrix type="matrix" values="0 0 0 0 0 0 0 0 0 0 0 0 0 0 0 0 0 0 1 0"/>
<feBlend mode="normal" in2="BackgroundImageFix" result="effect1_dropShadow_502_109"/>
<feBlend mode="normal" in="SourceGraphic" in2="effect1_dropShadow_502_109" result="shape"/>
</filter>
</defs>
</svg>
